<mxfile host="app.diagrams.net" modified="2022-09-20T13:01:51.532Z" agent="5.0 (Windows NT 10.0; Win64; x64) AppleWebKit/537.36 (KHTML, like Gecko) Chrome/105.0.0.0 Safari/537.36" etag="zH8lXCPm9efVmrJ8iGz0" version="20.3.2" type="github">
  <diagram id="y-GwCPaITbIZHPMvpnQi" name="第 1 页">
    <mxGraphModel dx="1713" dy="495" grid="1" gridSize="10" guides="1" tooltips="1" connect="1" arrows="1" fold="1" page="1" pageScale="1" pageWidth="827" pageHeight="1169" math="0" shadow="0">
      <root>
        <mxCell id="0" />
        <mxCell id="1" parent="0" />
        <mxCell id="VE92HPekBiB7pLZRxwOt-1" value="futuhk.com/support" style="rounded=0;whiteSpace=wrap;html=1;fillColor=#ffe6cc;strokeColor=#d79b00;" vertex="1" parent="1">
          <mxGeometry x="60" y="80" width="110" height="20" as="geometry" />
        </mxCell>
        <mxCell id="VE92HPekBiB7pLZRxwOt-12" value="" style="edgeStyle=orthogonalEdgeStyle;rounded=0;orthogonalLoop=1;jettySize=auto;html=1;" edge="1" parent="1" source="VE92HPekBiB7pLZRxwOt-2" target="VE92HPekBiB7pLZRxwOt-11">
          <mxGeometry relative="1" as="geometry" />
        </mxCell>
        <mxCell id="VE92HPekBiB7pLZRxwOt-2" value="support.futunn.com" style="rounded=0;whiteSpace=wrap;html=1;fillColor=#ffe6cc;strokeColor=#d79b00;" vertex="1" parent="1">
          <mxGeometry x="210" y="80" width="110" height="20" as="geometry" />
        </mxCell>
        <mxCell id="VE92HPekBiB7pLZRxwOt-14" value="" style="edgeStyle=orthogonalEdgeStyle;rounded=0;orthogonalLoop=1;jettySize=auto;html=1;" edge="1" parent="1" source="VE92HPekBiB7pLZRxwOt-3" target="VE92HPekBiB7pLZRxwOt-13">
          <mxGeometry relative="1" as="geometry" />
        </mxCell>
        <mxCell id="VE92HPekBiB7pLZRxwOt-3" value="support.moomoo.com" style="rounded=0;whiteSpace=wrap;html=1;fillColor=#ffe6cc;strokeColor=#d79b00;" vertex="1" parent="1">
          <mxGeometry x="480" y="80" width="121.5" height="20" as="geometry" />
        </mxCell>
        <mxCell id="VE92HPekBiB7pLZRxwOt-4" value="futuau.com/support" style="rounded=0;whiteSpace=wrap;html=1;fillColor=#ffe6cc;strokeColor=#d79b00;" vertex="1" parent="1">
          <mxGeometry x="680" y="80" width="110" height="20" as="geometry" />
        </mxCell>
        <mxCell id="VE92HPekBiB7pLZRxwOt-7" style="edgeStyle=orthogonalEdgeStyle;rounded=0;orthogonalLoop=1;jettySize=auto;html=1;exitX=0.5;exitY=1;exitDx=0;exitDy=0;entryX=0.444;entryY=-0.05;entryDx=0;entryDy=0;entryPerimeter=0;" edge="1" parent="1" source="VE92HPekBiB7pLZRxwOt-5" target="VE92HPekBiB7pLZRxwOt-2">
          <mxGeometry relative="1" as="geometry" />
        </mxCell>
        <mxCell id="VE92HPekBiB7pLZRxwOt-8" style="edgeStyle=orthogonalEdgeStyle;rounded=0;orthogonalLoop=1;jettySize=auto;html=1;exitX=0.5;exitY=1;exitDx=0;exitDy=0;entryX=0.5;entryY=0;entryDx=0;entryDy=0;" edge="1" parent="1" source="VE92HPekBiB7pLZRxwOt-5" target="VE92HPekBiB7pLZRxwOt-1">
          <mxGeometry relative="1" as="geometry" />
        </mxCell>
        <mxCell id="VE92HPekBiB7pLZRxwOt-9" style="edgeStyle=orthogonalEdgeStyle;rounded=0;orthogonalLoop=1;jettySize=auto;html=1;exitX=0.5;exitY=1;exitDx=0;exitDy=0;" edge="1" parent="1" source="VE92HPekBiB7pLZRxwOt-5" target="VE92HPekBiB7pLZRxwOt-3">
          <mxGeometry relative="1" as="geometry" />
        </mxCell>
        <mxCell id="VE92HPekBiB7pLZRxwOt-10" style="edgeStyle=orthogonalEdgeStyle;rounded=0;orthogonalLoop=1;jettySize=auto;html=1;exitX=0.5;exitY=1;exitDx=0;exitDy=0;entryX=0.5;entryY=0;entryDx=0;entryDy=0;" edge="1" parent="1" source="VE92HPekBiB7pLZRxwOt-5" target="VE92HPekBiB7pLZRxwOt-4">
          <mxGeometry relative="1" as="geometry" />
        </mxCell>
        <mxCell id="VE92HPekBiB7pLZRxwOt-5" value="帮助中心架构" style="rounded=0;whiteSpace=wrap;html=1;fillColor=#d5e8d4;strokeColor=#82b366;" vertex="1" parent="1">
          <mxGeometry x="354" y="20" width="120" height="20" as="geometry" />
        </mxCell>
        <mxCell id="VE92HPekBiB7pLZRxwOt-73" style="edgeStyle=orthogonalEdgeStyle;rounded=0;orthogonalLoop=1;jettySize=auto;html=1;exitX=0.5;exitY=1;exitDx=0;exitDy=0;" edge="1" parent="1" source="VE92HPekBiB7pLZRxwOt-11" target="VE92HPekBiB7pLZRxwOt-46">
          <mxGeometry relative="1" as="geometry" />
        </mxCell>
        <mxCell id="VE92HPekBiB7pLZRxwOt-74" style="edgeStyle=orthogonalEdgeStyle;rounded=0;orthogonalLoop=1;jettySize=auto;html=1;exitX=0.5;exitY=1;exitDx=0;exitDy=0;entryX=0.5;entryY=0;entryDx=0;entryDy=0;" edge="1" parent="1" source="VE92HPekBiB7pLZRxwOt-11" target="VE92HPekBiB7pLZRxwOt-47">
          <mxGeometry relative="1" as="geometry" />
        </mxCell>
        <mxCell id="VE92HPekBiB7pLZRxwOt-75" style="edgeStyle=orthogonalEdgeStyle;rounded=0;orthogonalLoop=1;jettySize=auto;html=1;exitX=0.5;exitY=1;exitDx=0;exitDy=0;entryX=0.5;entryY=0;entryDx=0;entryDy=0;" edge="1" parent="1" source="VE92HPekBiB7pLZRxwOt-11" target="VE92HPekBiB7pLZRxwOt-48">
          <mxGeometry relative="1" as="geometry" />
        </mxCell>
        <mxCell id="VE92HPekBiB7pLZRxwOt-76" style="edgeStyle=orthogonalEdgeStyle;rounded=0;orthogonalLoop=1;jettySize=auto;html=1;exitX=0.5;exitY=1;exitDx=0;exitDy=0;entryX=0.5;entryY=0;entryDx=0;entryDy=0;" edge="1" parent="1" source="VE92HPekBiB7pLZRxwOt-11" target="VE92HPekBiB7pLZRxwOt-49">
          <mxGeometry relative="1" as="geometry" />
        </mxCell>
        <mxCell id="VE92HPekBiB7pLZRxwOt-11" value="首位主推" style="whiteSpace=wrap;html=1;fillColor=#ffe6cc;strokeColor=#d79b00;rounded=0;" vertex="1" parent="1">
          <mxGeometry x="222.5" y="140" width="85" height="20" as="geometry" />
        </mxCell>
        <mxCell id="VE92HPekBiB7pLZRxwOt-18" style="edgeStyle=orthogonalEdgeStyle;rounded=0;orthogonalLoop=1;jettySize=auto;html=1;exitX=0.5;exitY=1;exitDx=0;exitDy=0;entryX=0.5;entryY=0;entryDx=0;entryDy=0;" edge="1" parent="1" source="VE92HPekBiB7pLZRxwOt-13" target="VE92HPekBiB7pLZRxwOt-15">
          <mxGeometry relative="1" as="geometry" />
        </mxCell>
        <mxCell id="VE92HPekBiB7pLZRxwOt-19" style="edgeStyle=orthogonalEdgeStyle;rounded=0;orthogonalLoop=1;jettySize=auto;html=1;exitX=0.5;exitY=1;exitDx=0;exitDy=0;" edge="1" parent="1" source="VE92HPekBiB7pLZRxwOt-13" target="VE92HPekBiB7pLZRxwOt-16">
          <mxGeometry relative="1" as="geometry" />
        </mxCell>
        <mxCell id="VE92HPekBiB7pLZRxwOt-13" value="是否携带区域参数" style="rhombus;whiteSpace=wrap;html=1;fillColor=#ffe6cc;strokeColor=#d79b00;" vertex="1" parent="1">
          <mxGeometry x="500.75" y="160" width="80" height="80" as="geometry" />
        </mxCell>
        <mxCell id="VE92HPekBiB7pLZRxwOt-24" style="edgeStyle=orthogonalEdgeStyle;rounded=0;orthogonalLoop=1;jettySize=auto;html=1;exitX=0.5;exitY=1;exitDx=0;exitDy=0;entryX=0.5;entryY=0;entryDx=0;entryDy=0;" edge="1" parent="1" source="VE92HPekBiB7pLZRxwOt-15" target="VE92HPekBiB7pLZRxwOt-20">
          <mxGeometry relative="1" as="geometry">
            <Array as="points">
              <mxPoint x="453" y="320" />
              <mxPoint x="367" y="320" />
            </Array>
          </mxGeometry>
        </mxCell>
        <mxCell id="VE92HPekBiB7pLZRxwOt-25" style="edgeStyle=orthogonalEdgeStyle;rounded=0;orthogonalLoop=1;jettySize=auto;html=1;exitX=0.5;exitY=1;exitDx=0;exitDy=0;entryX=0.5;entryY=0;entryDx=0;entryDy=0;" edge="1" parent="1" source="VE92HPekBiB7pLZRxwOt-15" target="VE92HPekBiB7pLZRxwOt-21">
          <mxGeometry relative="1" as="geometry" />
        </mxCell>
        <mxCell id="VE92HPekBiB7pLZRxwOt-26" style="edgeStyle=orthogonalEdgeStyle;rounded=0;orthogonalLoop=1;jettySize=auto;html=1;exitX=0.5;exitY=1;exitDx=0;exitDy=0;entryX=0.5;entryY=0;entryDx=0;entryDy=0;" edge="1" parent="1" source="VE92HPekBiB7pLZRxwOt-15" target="VE92HPekBiB7pLZRxwOt-22">
          <mxGeometry relative="1" as="geometry" />
        </mxCell>
        <mxCell id="VE92HPekBiB7pLZRxwOt-27" style="edgeStyle=orthogonalEdgeStyle;rounded=0;orthogonalLoop=1;jettySize=auto;html=1;entryX=0.5;entryY=0;entryDx=0;entryDy=0;" edge="1" parent="1" source="VE92HPekBiB7pLZRxwOt-15" target="VE92HPekBiB7pLZRxwOt-23">
          <mxGeometry relative="1" as="geometry" />
        </mxCell>
        <mxCell id="VE92HPekBiB7pLZRxwOt-15" value="首位主推" style="whiteSpace=wrap;html=1;fillColor=#ffe6cc;strokeColor=#d79b00;rounded=0;" vertex="1" parent="1">
          <mxGeometry x="405" y="280" width="95" height="20" as="geometry" />
        </mxCell>
        <mxCell id="VE92HPekBiB7pLZRxwOt-33" style="edgeStyle=orthogonalEdgeStyle;rounded=0;orthogonalLoop=1;jettySize=auto;html=1;exitX=0.5;exitY=1;exitDx=0;exitDy=0;" edge="1" parent="1" source="VE92HPekBiB7pLZRxwOt-16" target="VE92HPekBiB7pLZRxwOt-30">
          <mxGeometry relative="1" as="geometry" />
        </mxCell>
        <mxCell id="VE92HPekBiB7pLZRxwOt-34" style="edgeStyle=orthogonalEdgeStyle;rounded=0;orthogonalLoop=1;jettySize=auto;html=1;exitX=0.5;exitY=1;exitDx=0;exitDy=0;entryX=0.5;entryY=0;entryDx=0;entryDy=0;" edge="1" parent="1" source="VE92HPekBiB7pLZRxwOt-16" target="VE92HPekBiB7pLZRxwOt-28">
          <mxGeometry relative="1" as="geometry">
            <Array as="points">
              <mxPoint x="655" y="320" />
              <mxPoint x="573" y="320" />
            </Array>
          </mxGeometry>
        </mxCell>
        <mxCell id="VE92HPekBiB7pLZRxwOt-35" style="edgeStyle=orthogonalEdgeStyle;rounded=0;orthogonalLoop=1;jettySize=auto;html=1;exitX=0.5;exitY=1;exitDx=0;exitDy=0;entryX=0.5;entryY=0;entryDx=0;entryDy=0;" edge="1" parent="1" source="VE92HPekBiB7pLZRxwOt-16" target="VE92HPekBiB7pLZRxwOt-29">
          <mxGeometry relative="1" as="geometry" />
        </mxCell>
        <mxCell id="VE92HPekBiB7pLZRxwOt-36" style="edgeStyle=orthogonalEdgeStyle;rounded=0;orthogonalLoop=1;jettySize=auto;html=1;entryX=0.385;entryY=0;entryDx=0;entryDy=0;entryPerimeter=0;" edge="1" parent="1" source="VE92HPekBiB7pLZRxwOt-16" target="VE92HPekBiB7pLZRxwOt-31">
          <mxGeometry relative="1" as="geometry" />
        </mxCell>
        <mxCell id="VE92HPekBiB7pLZRxwOt-37" style="edgeStyle=orthogonalEdgeStyle;rounded=0;orthogonalLoop=1;jettySize=auto;html=1;exitX=0.5;exitY=1;exitDx=0;exitDy=0;entryX=0.5;entryY=0;entryDx=0;entryDy=0;" edge="1" parent="1" source="VE92HPekBiB7pLZRxwOt-16" target="VE92HPekBiB7pLZRxwOt-32">
          <mxGeometry relative="1" as="geometry" />
        </mxCell>
        <mxCell id="VE92HPekBiB7pLZRxwOt-16" value="区域参数" style="whiteSpace=wrap;html=1;fillColor=#ffe6cc;strokeColor=#d79b00;rounded=0;" vertex="1" parent="1">
          <mxGeometry x="600" y="280" width="110" height="20" as="geometry" />
        </mxCell>
        <mxCell id="VE92HPekBiB7pLZRxwOt-20" value="hk" style="rounded=0;whiteSpace=wrap;html=1;fillColor=#dae8fc;strokeColor=#6c8ebf;" vertex="1" parent="1">
          <mxGeometry x="354" y="340" width="26" height="20" as="geometry" />
        </mxCell>
        <mxCell id="VE92HPekBiB7pLZRxwOt-21" value="us" style="rounded=0;whiteSpace=wrap;html=1;fillColor=#dae8fc;strokeColor=#6c8ebf;" vertex="1" parent="1">
          <mxGeometry x="401" y="340" width="26" height="20" as="geometry" />
        </mxCell>
        <mxCell id="VE92HPekBiB7pLZRxwOt-22" value="sg" style="rounded=0;whiteSpace=wrap;html=1;fillColor=#dae8fc;strokeColor=#6c8ebf;" vertex="1" parent="1">
          <mxGeometry x="448" y="340" width="26" height="20" as="geometry" />
        </mxCell>
        <mxCell id="VE92HPekBiB7pLZRxwOt-23" value="空" style="rounded=0;whiteSpace=wrap;html=1;fillColor=#dae8fc;strokeColor=#6c8ebf;" vertex="1" parent="1">
          <mxGeometry x="490" y="340" width="26" height="20" as="geometry" />
        </mxCell>
        <mxCell id="VE92HPekBiB7pLZRxwOt-28" value="/sg" style="rounded=0;whiteSpace=wrap;html=1;fillColor=#dae8fc;strokeColor=#6c8ebf;" vertex="1" parent="1">
          <mxGeometry x="560" y="340" width="26" height="20" as="geometry" />
        </mxCell>
        <mxCell id="VE92HPekBiB7pLZRxwOt-29" value="/us" style="rounded=0;whiteSpace=wrap;html=1;fillColor=#dae8fc;strokeColor=#6c8ebf;" vertex="1" parent="1">
          <mxGeometry x="600" y="340" width="26" height="20" as="geometry" />
        </mxCell>
        <mxCell id="VE92HPekBiB7pLZRxwOt-30" value="/au" style="rounded=0;whiteSpace=wrap;html=1;fillColor=#dae8fc;strokeColor=#6c8ebf;" vertex="1" parent="1">
          <mxGeometry x="642" y="340" width="26" height="20" as="geometry" />
        </mxCell>
        <mxCell id="VE92HPekBiB7pLZRxwOt-31" value="/mm" style="rounded=0;whiteSpace=wrap;html=1;fillColor=#dae8fc;strokeColor=#6c8ebf;" vertex="1" parent="1">
          <mxGeometry x="680" y="340" width="26" height="20" as="geometry" />
        </mxCell>
        <mxCell id="VE92HPekBiB7pLZRxwOt-32" value="/jp" style="rounded=0;whiteSpace=wrap;html=1;fillColor=#dae8fc;strokeColor=#6c8ebf;" vertex="1" parent="1">
          <mxGeometry x="720" y="340" width="26" height="20" as="geometry" />
        </mxCell>
        <mxCell id="VE92HPekBiB7pLZRxwOt-38" value="牛牛HK首页配置" style="rounded=0;whiteSpace=wrap;html=1;fillColor=#f8cecc;strokeColor=#b85450;" vertex="1" parent="1">
          <mxGeometry x="175.5" y="400" width="43" height="40" as="geometry" />
        </mxCell>
        <mxCell id="VE92HPekBiB7pLZRxwOt-39" value="牛牛US首页配置" style="rounded=0;whiteSpace=wrap;html=1;fillColor=#f8cecc;strokeColor=#b85450;" vertex="1" parent="1">
          <mxGeometry x="222.5" y="400" width="43" height="40" as="geometry" />
        </mxCell>
        <mxCell id="VE92HPekBiB7pLZRxwOt-40" value="牛牛US首页配置" style="rounded=0;whiteSpace=wrap;html=1;fillColor=#f8cecc;strokeColor=#b85450;" vertex="1" parent="1">
          <mxGeometry x="269.5" y="400" width="43" height="40" as="geometry" />
        </mxCell>
        <mxCell id="VE92HPekBiB7pLZRxwOt-41" value="moomooHK页配置" style="rounded=0;whiteSpace=wrap;html=1;fillColor=#f8cecc;strokeColor=#b85450;" vertex="1" parent="1">
          <mxGeometry x="660.75" y="400" width="64.5" height="40" as="geometry" />
        </mxCell>
        <mxCell id="VE92HPekBiB7pLZRxwOt-42" value="FutuHK&amp;nbsp;" style="rounded=0;whiteSpace=wrap;html=1;fillColor=#f5f5f5;fontColor=#333333;strokeColor=#666666;" vertex="1" parent="1">
          <mxGeometry x="50" y="480" width="70" height="30" as="geometry" />
        </mxCell>
        <mxCell id="VE92HPekBiB7pLZRxwOt-45" value="模板：" style="text;html=1;align=center;verticalAlign=middle;resizable=0;points=[];autosize=1;strokeColor=none;fillColor=none;" vertex="1" parent="1">
          <mxGeometry x="-10" y="480" width="60" height="30" as="geometry" />
        </mxCell>
        <mxCell id="VE92HPekBiB7pLZRxwOt-77" style="edgeStyle=orthogonalEdgeStyle;rounded=0;orthogonalLoop=1;jettySize=auto;html=1;exitX=0.5;exitY=1;exitDx=0;exitDy=0;entryX=0.5;entryY=0;entryDx=0;entryDy=0;" edge="1" parent="1" source="VE92HPekBiB7pLZRxwOt-46" target="VE92HPekBiB7pLZRxwOt-38">
          <mxGeometry relative="1" as="geometry" />
        </mxCell>
        <mxCell id="VE92HPekBiB7pLZRxwOt-46" value="hk" style="rounded=0;whiteSpace=wrap;html=1;fillColor=#dae8fc;strokeColor=#6c8ebf;" vertex="1" parent="1">
          <mxGeometry x="184" y="200" width="26" height="20" as="geometry" />
        </mxCell>
        <mxCell id="VE92HPekBiB7pLZRxwOt-78" style="edgeStyle=orthogonalEdgeStyle;rounded=0;orthogonalLoop=1;jettySize=auto;html=1;exitX=0.5;exitY=1;exitDx=0;exitDy=0;entryX=0.5;entryY=0;entryDx=0;entryDy=0;" edge="1" parent="1" source="VE92HPekBiB7pLZRxwOt-47" target="VE92HPekBiB7pLZRxwOt-39">
          <mxGeometry relative="1" as="geometry" />
        </mxCell>
        <mxCell id="VE92HPekBiB7pLZRxwOt-47" value="us" style="rounded=0;whiteSpace=wrap;html=1;fillColor=#dae8fc;strokeColor=#6c8ebf;" vertex="1" parent="1">
          <mxGeometry x="230" y="200" width="27" height="20" as="geometry" />
        </mxCell>
        <mxCell id="VE92HPekBiB7pLZRxwOt-79" style="edgeStyle=orthogonalEdgeStyle;rounded=0;orthogonalLoop=1;jettySize=auto;html=1;exitX=0.5;exitY=1;exitDx=0;exitDy=0;entryX=0.5;entryY=0;entryDx=0;entryDy=0;" edge="1" parent="1" source="VE92HPekBiB7pLZRxwOt-48" target="VE92HPekBiB7pLZRxwOt-40">
          <mxGeometry relative="1" as="geometry" />
        </mxCell>
        <mxCell id="VE92HPekBiB7pLZRxwOt-48" value="sg" style="rounded=0;whiteSpace=wrap;html=1;fillColor=#dae8fc;strokeColor=#6c8ebf;" vertex="1" parent="1">
          <mxGeometry x="278" y="200" width="26" height="20" as="geometry" />
        </mxCell>
        <mxCell id="VE92HPekBiB7pLZRxwOt-49" value="空" style="rounded=0;whiteSpace=wrap;html=1;fillColor=#dae8fc;strokeColor=#6c8ebf;" vertex="1" parent="1">
          <mxGeometry x="320" y="200" width="26" height="20" as="geometry" />
        </mxCell>
        <mxCell id="VE92HPekBiB7pLZRxwOt-50" value="是" style="text;html=1;align=center;verticalAlign=middle;resizable=0;points=[];autosize=1;strokeColor=none;fillColor=none;" vertex="1" parent="1">
          <mxGeometry x="570" y="235" width="40" height="30" as="geometry" />
        </mxCell>
        <mxCell id="VE92HPekBiB7pLZRxwOt-51" value="否" style="text;html=1;align=center;verticalAlign=middle;resizable=0;points=[];autosize=1;strokeColor=none;fillColor=none;" vertex="1" parent="1">
          <mxGeometry x="470" y="235" width="40" height="30" as="geometry" />
        </mxCell>
        <mxCell id="VE92HPekBiB7pLZRxwOt-52" value="US-broker" style="rounded=0;whiteSpace=wrap;html=1;fillColor=#f5f5f5;fontColor=#333333;strokeColor=#666666;" vertex="1" parent="1">
          <mxGeometry x="114" y="520" width="70" height="30" as="geometry" />
        </mxCell>
        <mxCell id="VE92HPekBiB7pLZRxwOt-53" value="牛牛" style="rounded=0;whiteSpace=wrap;html=1;fillColor=#f5f5f5;fontColor=#333333;strokeColor=#666666;" vertex="1" parent="1">
          <mxGeometry x="184" y="480" width="70" height="30" as="geometry" />
        </mxCell>
        <mxCell id="VE92HPekBiB7pLZRxwOt-54" value="moomooSG" style="rounded=0;whiteSpace=wrap;html=1;fillColor=#f5f5f5;fontColor=#333333;strokeColor=#666666;" vertex="1" parent="1">
          <mxGeometry x="327" y="480" width="70" height="30" as="geometry" />
        </mxCell>
        <mxCell id="VE92HPekBiB7pLZRxwOt-55" value="SG-broker" style="rounded=0;whiteSpace=wrap;html=1;fillColor=#f5f5f5;fontColor=#333333;strokeColor=#666666;" vertex="1" parent="1">
          <mxGeometry x="257" y="520" width="70" height="30" as="geometry" />
        </mxCell>
        <mxCell id="VE92HPekBiB7pLZRxwOt-56" value="moomooUS" style="rounded=0;whiteSpace=wrap;html=1;fillColor=#f5f5f5;fontColor=#333333;strokeColor=#666666;" vertex="1" parent="1">
          <mxGeometry x="400" y="520" width="70" height="30" as="geometry" />
        </mxCell>
        <mxCell id="VE92HPekBiB7pLZRxwOt-57" value="moomooAU" style="rounded=0;whiteSpace=wrap;html=1;fillColor=#f5f5f5;fontColor=#333333;strokeColor=#666666;" vertex="1" parent="1">
          <mxGeometry x="470" y="480" width="70" height="30" as="geometry" />
        </mxCell>
        <mxCell id="VE92HPekBiB7pLZRxwOt-58" value="moomoo" style="rounded=0;whiteSpace=wrap;html=1;fillColor=#f5f5f5;fontColor=#333333;strokeColor=#666666;" vertex="1" parent="1">
          <mxGeometry x="540" y="520" width="70" height="30" as="geometry" />
        </mxCell>
        <mxCell id="VE92HPekBiB7pLZRxwOt-61" value="moomooJP" style="rounded=0;whiteSpace=wrap;html=1;fillColor=#f5f5f5;fontColor=#333333;strokeColor=#666666;" vertex="1" parent="1">
          <mxGeometry x="610" y="480" width="70" height="30" as="geometry" />
        </mxCell>
        <mxCell id="VE92HPekBiB7pLZRxwOt-62" value="FutuAU" style="rounded=0;whiteSpace=wrap;html=1;fillColor=#f5f5f5;fontColor=#333333;strokeColor=#666666;" vertex="1" parent="1">
          <mxGeometry x="690" y="520" width="60" height="30" as="geometry" />
        </mxCell>
        <mxCell id="VE92HPekBiB7pLZRxwOt-63" value="文章池" style="text;html=1;align=center;verticalAlign=middle;resizable=0;points=[];autosize=1;strokeColor=none;fillColor=none;" vertex="1" parent="1">
          <mxGeometry x="-10" y="595" width="60" height="30" as="geometry" />
        </mxCell>
        <mxCell id="VE92HPekBiB7pLZRxwOt-66" value="HK" style="rounded=0;whiteSpace=wrap;html=1;fillColor=#fff2cc;strokeColor=#d6b656;" vertex="1" parent="1">
          <mxGeometry x="50" y="595" width="70" height="30" as="geometry" />
        </mxCell>
        <mxCell id="VE92HPekBiB7pLZRxwOt-67" value="牛牛" style="rounded=0;whiteSpace=wrap;html=1;fillColor=#fff2cc;strokeColor=#d6b656;" vertex="1" parent="1">
          <mxGeometry x="170" y="595" width="70" height="30" as="geometry" />
        </mxCell>
        <mxCell id="VE92HPekBiB7pLZRxwOt-68" value="SG" style="rounded=0;whiteSpace=wrap;html=1;fillColor=#fff2cc;strokeColor=#d6b656;" vertex="1" parent="1">
          <mxGeometry x="276" y="595" width="70" height="30" as="geometry" />
        </mxCell>
        <mxCell id="VE92HPekBiB7pLZRxwOt-69" value="US" style="rounded=0;whiteSpace=wrap;html=1;fillColor=#fff2cc;strokeColor=#d6b656;" vertex="1" parent="1">
          <mxGeometry x="390" y="595" width="70" height="30" as="geometry" />
        </mxCell>
        <mxCell id="VE92HPekBiB7pLZRxwOt-70" value="moomoo" style="rounded=0;whiteSpace=wrap;html=1;fillColor=#fff2cc;strokeColor=#d6b656;" vertex="1" parent="1">
          <mxGeometry x="500" y="595" width="70" height="30" as="geometry" />
        </mxCell>
        <mxCell id="VE92HPekBiB7pLZRxwOt-71" value="JP" style="rounded=0;whiteSpace=wrap;html=1;fillColor=#fff2cc;strokeColor=#d6b656;" vertex="1" parent="1">
          <mxGeometry x="600" y="595" width="70" height="30" as="geometry" />
        </mxCell>
        <mxCell id="VE92HPekBiB7pLZRxwOt-72" value="AU" style="rounded=0;whiteSpace=wrap;html=1;fillColor=#fff2cc;strokeColor=#d6b656;" vertex="1" parent="1">
          <mxGeometry x="710" y="595" width="70" height="30" as="geometry" />
        </mxCell>
      </root>
    </mxGraphModel>
  </diagram>
</mxfile>
